<svg width="1440" height="534" viewBox="0 0 1440 534" fill="none" xmlns="http://www.w3.org/2000/svg">
<path fill-rule="evenodd" clip-rule="evenodd" d="M-12 445.344H28.3333C68.6667 445.344 149.333 445.344 230 340.193C310.667 237.104 391.333 28.8649 472 28.8649C552.667 28.8649 633.333 237.104 714 282.463C794.667 325.761 875.333 208.239 956 134.015C1036.67 59.7915 1117.33 28.8649 1198 14.4324C1278.67 0 1359.33 0 1399.67 0H1440V534H1399.67C1359.33 534 1278.67 534 1198 534C1117.33 534 1036.67 534 956 534C875.333 534 794.667 534 714 534C633.333 534 552.667 534 472 534C391.333 534 310.667 534 230 534C149.333 534 68.6667 534 28.3333 534H-12V445.344Z" fill="#2F80ED"/>
</svg>
