<svg width="84" height="84" viewBox="0 0 84 84" fill="none" xmlns="http://www.w3.org/2000/svg">
<path d="M70.875 12.6389C78.9769 20.676 83.0278 30.3658 83.0278 41.7084C83.0278 53.051 78.9769 62.7408 70.875 70.7778C62.7731 78.8149 53.0185 82.8334 41.6111 82.8334C34.6111 82.8334 28.0648 81.1482 21.9722 77.7778L0 83.4167L5.83333 62.2223C2.2037 55.8704 0.388889 49 0.388889 41.6112C0.388889 30.3334 4.40741 20.676 12.4444 12.6389C20.4815 4.60189 30.2037 0.583374 41.6111 0.583374C53.0185 0.583374 62.7731 4.60189 70.875 12.6389ZM41.6111 75.8334C51.0741 75.8334 59.1759 72.4954 65.9167 65.8195C72.6574 59.1436 76.0278 51.0741 76.0278 41.6112C76.0278 32.1482 72.6574 24.0787 65.9167 17.4028C59.1759 10.7269 51.0741 7.38893 41.6111 7.38893C32.1481 7.38893 24.0787 10.7269 17.4028 17.4028C10.7269 24.0787 7.38889 32.1482 7.38889 41.6112C7.38889 48.2223 9.13889 54.3149 12.6389 59.8889L13.4167 61.0556L9.91667 73.6945L22.9444 70.3889L24.1111 70.9723C29.5556 74.213 35.3889 75.8334 41.6111 75.8334ZM60.4722 50.1667C61.6389 50.8149 62.287 51.2686 62.4167 51.5278C62.9352 52.3056 62.7407 53.926 61.8333 56.3889C61.4444 57.426 60.4722 58.4306 58.9167 59.4028C57.3611 60.375 56 60.9908 54.8333 61.25C52.5 61.5093 50.3611 61.3797 48.4167 60.8612C46.213 60.0834 44.2685 59.3704 42.5833 58.7223C41.5463 58.2037 40.5417 57.6528 39.5694 57.0695C38.5972 56.4862 37.6574 55.9028 36.75 55.3195C35.8426 54.7362 35 54.1204 34.2222 53.4723C33.4444 52.8241 32.6991 52.176 31.9861 51.5278C31.2731 50.8797 30.5926 50.1991 29.9444 49.4862C29.2963 48.7732 28.7454 48.1574 28.2917 47.6389C27.838 47.1204 27.3843 46.5695 26.9306 45.9862C26.4769 45.4028 26.1204 44.9491 25.8611 44.625C25.6019 44.301 25.375 43.9769 25.1806 43.6528L24.8889 43.1667C22.037 39.4074 20.6111 35.8426 20.6111 32.4723C20.6111 29.3612 21.8426 26.5093 24.3056 23.9167C25.0833 23.0093 25.9907 22.5556 27.0278 22.5556C27.8056 22.5556 28.4537 22.6204 28.9722 22.75C30.0093 22.75 30.787 23.3334 31.3056 24.5C31.5648 24.8889 31.9537 25.7315 32.4722 27.0278L33.8333 30.4306L34.4167 32.0834C34.8056 32.7315 34.8704 33.3149 34.6111 33.8334C34.2222 34.7408 33.8981 35.3241 33.6389 35.5834L33.0556 36.1667L32.4722 36.8473L32.0833 37.3334C31.3056 38.1112 31.1111 38.8241 31.5 39.4723C33.1852 42.3241 35.1296 44.7223 37.3333 46.6667C39.0185 48.0926 41.8056 49.7778 45.6944 51.7223C46.6019 52.1112 47.3148 52.0463 47.8333 51.5278C49.3889 49.5834 50.4907 48.2223 51.1389 47.4445C51.6574 46.6667 52.4352 46.4723 53.4722 46.8612C54.25 47.25 56.5833 48.3519 60.4722 50.1667Z" fill="white"/>
</svg>
